<?xml version="1.0" standalone="no"?>
<!DOCTYPE svg PUBLIC "-//W3C//DTD SVG 20010904//EN"
 "http://www.w3.org/TR/2001/REC-SVG-20010904/DTD/svg10.dtd">
<svg version="1.0" xmlns="http://www.w3.org/2000/svg"
 width="1418.000000pt" height="280.000000pt" viewBox="0 0 1418.000000 280.000000"
 preserveAspectRatio="xMidYMid meet">

<g transform="translate(0.000000,280.000000) scale(0.100000,-0.100000)"
fill="#000000" stroke="none">
<path d="M4380 1280 l0 -770 155 0 155 0 0 338 c0 195 4 352 10 373 15 52 49
99 98 133 34 24 55 31 107 34 36 2 81 1 100 -2 46 -9 103 -60 129 -116 20 -42
21 -65 24 -403 l4 -357 155 0 155 0 -4 403 c-4 374 -6 406 -25 464 -65 196
-213 303 -419 303 -119 0 -224 -35 -299 -101 l-35 -31 0 251 0 251 -155 0
-155 0 0 -770z"/>
<path d="M12750 1810 l0 -150 -80 0 -80 0 0 -140 0 -140 79 0 79 0 4 -292 c5
-323 10 -352 72 -434 76 -102 163 -135 374 -141 l152 -5 0 135 0 135 -111 4
-111 3 -29 33 -29 32 0 265 0 264 138 3 137 3 3 138 3 137 -141 0 -140 0 0
150 0 150 -160 0 -160 0 0 -150z"/>
<path d="M1003 1338 c-276 -277 -507 -516 -513 -531 -16 -44 25 -97 75 -97 13
0 179 158 490 470 258 259 474 470 480 470 5 0 220 -210 477 -467 l468 -468
576 -3 c508 -2 579 -1 600 13 56 37 51 44 -354 448 l-378 377 -97 0 -97 0 0
145 0 145 -85 0 -85 0 0 -145 0 -145 -353 0 -352 0 -130 131 c-128 129 -167
159 -202 159 -11 0 -228 -211 -520 -502z"/>
<path d="M6155 1683 c-184 -14 -360 -103 -457 -231 -74 -96 -127 -249 -128
-364 0 -81 28 -200 66 -278 69 -140 223 -264 380 -305 77 -20 271 -20 347 0
143 37 292 148 362 269 128 220 108 489 -50 689 -113 143 -330 234 -520 220z
m186 -320 c182 -102 213 -383 56 -519 -177 -154 -436 -84 -501 136 -52 174 29
346 191 406 25 9 66 13 119 11 68 -3 89 -8 135 -34z"/>
<path d="M7410 1662 c-72 -24 -112 -46 -155 -83 l-35 -31 0 56 0 56 -155 0
-155 0 0 -575 0 -575 160 0 160 0 0 358 c0 326 2 360 19 397 37 80 111 125
206 125 70 0 116 -19 147 -61 46 -62 48 -82 48 -460 l0 -359 155 0 154 0 3
358 3 358 26 49 c15 30 42 62 68 80 36 25 54 30 116 33 85 5 134 -16 172 -71
38 -55 43 -108 43 -464 l0 -343 156 0 155 0 -4 413 c-4 454 -5 459 -70 567
-69 115 -188 180 -344 188 -154 7 -293 -38 -385 -125 l-27 -26 -51 47 c-77 72
-144 98 -259 103 -74 2 -109 -1 -151 -15z"/>
<path d="M9250 1664 c-208 -54 -371 -216 -426 -422 -20 -77 -20 -240 1 -321
52 -200 187 -346 378 -406 66 -21 97 -25 205 -25 76 0 152 6 190 15 122 29
250 111 331 214 l31 38 -117 71 -116 70 -44 -45 c-63 -65 -138 -96 -243 -101
-70 -3 -95 0 -144 18 -67 26 -129 82 -157 143 -37 83 -73 76 419 79 l437 3 3
68 c13 295 -159 540 -422 602 -78 19 -254 18 -326 -1z m297 -267 c28 -15 63
-41 76 -59 28 -38 57 -92 57 -108 0 -7 -90 -10 -275 -10 -184 0 -275 3 -275
10 0 13 34 79 52 100 80 96 247 127 365 67z"/>
<path d="M10625 1666 c-56 -14 -124 -47 -172 -84 l-33 -24 0 51 0 51 -155 0
-155 0 0 -575 0 -575 155 0 155 0 0 338 c0 195 4 352 10 373 15 52 49 99 98
133 34 24 55 31 107 34 36 2 81 1 100 -2 46 -9 103 -60 129 -116 20 -42 21
-65 24 -402 l4 -358 155 0 155 0 -4 403 c-4 373 -6 407 -25 464 -50 151 -144
244 -292 289 -56 17 -188 17 -256 0z"/>
<path d="M11748 1665 c-212 -52 -388 -234 -433 -450 -29 -137 -11 -286 50
-413 68 -143 229 -271 382 -302 37 -8 109 -11 198 -8 151 6 217 22 321 83 56
32 187 161 182 177 -3 7 -53 42 -113 79 l-110 68 -52 -50 c-81 -77 -127 -94
-253 -94 -92 0 -111 3 -153 25 -75 38 -125 100 -151 188 l-7 22 439 0 439 0 6
48 c3 26 1 86 -4 134 -26 250 -179 433 -414 493 -74 19 -249 19 -327 0z m287
-263 c67 -34 119 -94 139 -159 l7 -23 -280 0 -281 0 14 35 c34 79 93 133 179
161 59 19 172 12 222 -14z"/>
<path d="M1320 1040 l0 -90 90 0 90 0 0 90 0 90 -90 0 -90 0 0 -90z"/>
<path d="M1560 1040 l0 -90 90 0 90 0 0 90 0 90 -90 0 -90 0 0 -90z"/>
<path d="M1320 800 l0 -90 90 0 90 0 0 90 0 90 -90 0 -90 0 0 -90z"/>
<path d="M1560 800 l0 -90 90 0 90 0 0 90 0 90 -90 0 -90 0 0 -90z"/>
</g>
</svg>
